<?xml version="1.0" ?><!DOCTYPE svg  PUBLIC '-//W3C//DTD SVG 1.1//EN'  'http://www.w3.org/Graphics/SVG/1.1/DTD/svg11.dtd'><svg enable-background="new 0 0 50 50" height="50px" id="Layer_1" version="1.1" viewBox="0 0 50 50" width="50px" xml:space="preserve" xmlns="http://www.w3.org/2000/svg" xmlns:xlink="http://www.w3.org/1999/xlink"><rect fill="none" height="50" width="50"/><path d="M43,43c0,2.209-1.791,4-4,4  H11c-2.209,0-4-1.791-4-4V8c0-2.209,1.791-4,4-4h28c2.209,0,4,1.791,4,4V43z" fill="none" stroke="#ffffff" stroke-linecap="round" stroke-miterlimit="10" stroke-width="2"/><line fill="none" stroke="#ffffff" stroke-linecap="round" stroke-miterlimit="10" stroke-width="2" x1="7" x2="43" y1="18" y2="18"/><path d="M20,10c0,1,0.5,2,2,2  c1,0,5,0,6,0c1.484,0,2-1,2-2" fill="none" stroke="#ffffff" stroke-linecap="round" stroke-miterlimit="10" stroke-width="2"/><path d="M20,26c0,1,0.5,2,2,2  c1,0,5,0,6,0c1.484,0,2-1,2-2" fill="none" stroke="#ffffff" stroke-linecap="round" stroke-miterlimit="10" stroke-width="2"/><path d="M20,40c0,1,0.5,2,2,2  c1,0,5,0,6,0c1.484,0,2-1,2-2" fill="none" stroke="#ffffff" stroke-linecap="round" stroke-miterlimit="10" stroke-width="2"/><line fill="none" stroke="#ffffff" stroke-linecap="round" stroke-miterlimit="10" stroke-width="2" x1="7" x2="43" y1="33" y2="33"/></svg>